<svg xmlns="http://www.w3.org/2000/svg" xmlns:xlink="http://www.w3.org/1999/xlink" viewBox="0 0 1366 768"><defs><style>.cls-1{fill:#055770;}.cls-2{fill:#013e56;}.cls-3{fill:url(#radial-gradient);}.cls-4,.cls-6{fill:#fff;}.cls-4,.cls-5{opacity:0.1;}.cls-7{fill:url(#linear-gradient);}.cls-8{fill:url(#linear-gradient-2);}.cls-9{fill:#02202b;}.cls-10{fill:#063147;}</style><radialGradient id="radial-gradient" cx="673.73" cy="750.37" fx="649.2023354999327" r="709.48" gradientTransform="matrix(1, 0.02, -0.01, 0.39, 7, 438.77)" gradientUnits="userSpaceOnUse"><stop offset="0" stop-color="#fff"/><stop offset="0.06" stop-color="#e5f0f1"/><stop offset="0.18" stop-color="#b5d5d8"/><stop offset="0.31" stop-color="#8bbdc2"/><stop offset="0.44" stop-color="#6aaab0"/><stop offset="0.57" stop-color="#4f9ba2"/><stop offset="0.71" stop-color="#3d9098"/><stop offset="0.85" stop-color="#328a92"/><stop offset="1" stop-color="#2e8890"/></radialGradient><linearGradient id="linear-gradient" x1="887.5" y1="658.96" x2="887.5" y2="484.88" gradientUnits="userSpaceOnUse"><stop offset="0" stop-color="#02202b" stop-opacity="0"/><stop offset="0.4" stop-color="#02202b" stop-opacity="0.06"/><stop offset="0.64" stop-color="#02202b" stop-opacity="0.25"/><stop offset="0.84" stop-color="#02202b" stop-opacity="0.58"/><stop offset="1" stop-color="#02202b"/></linearGradient><linearGradient id="linear-gradient-2" x1="280.75" y1="684.83" x2="280.75" y2="451.5" gradientUnits="userSpaceOnUse"><stop offset="0" stop-color="#02202b" stop-opacity="0"/><stop offset="0.32" stop-color="#02212c" stop-opacity="0.03"/><stop offset="0.51" stop-color="#022431" stop-opacity="0.13"/><stop offset="0.67" stop-color="#022938" stop-opacity="0.3"/><stop offset="0.81" stop-color="#013042" stop-opacity="0.53"/><stop offset="0.94" stop-color="#01394f" stop-opacity="0.84"/><stop offset="1" stop-color="#013e56"/></linearGradient></defs><title>Fundo lago</title><g id="Monstanhas"><polygon class="cls-1" points="1038.97 296.02 703 181 575 213 479 181 287 221 140 311 100 428 56 474 1127.72 475.5 1084 328 1038.97 296.02"/><polygon class="cls-2" points="-0.5 453.5 195.5 319.5 230.5 242.5 333.5 242.5 387.5 336.5 508.5 395.5 562 475.83 0.5 475.83 -0.5 453.5"/></g><g id="Lago"><polygon class="cls-3" points="0 460.57 308 459 734 471.55 1081 464 1366 466 1366 768 0 768 0 460.57"/><path class="cls-4" d="M158,485.72c-4.32,8.24,206.21,11.07,208-3.08,1-7.93-70.31-.35-100-.88C237,481.23,164,474.27,158,485.72Z"/><g class="cls-5"><path class="cls-6" d="M829.64,599.21c-3.87,3.45,203.88-4.52,196.67-18.81C1031,573.75,815,586,829.64,599.21Z"/></g><g class="cls-5"><path class="cls-6" d="M650,543c3,2,6,1,9,1,18-2,35-3,53-2,8,1,15,2,23,3,32,9,64,15,97,7,8-2,15-4,22-8,1-1,5-2,4-5-2-3-5-1-8-1-26,5-51,8-77,5-17-3-33-9-50-12a134,134,0,0,0-40,0c-12,1-26,1-33,12Z"/></g><g class="cls-5"><path class="cls-6" d="M244,575c3,4,7,3,11,6h3c31,9,64,8,95-1,9-2,17-3,26-5,9-1,17-1,25-2,16-2,31,3,47,0,1,0,2-1,1-2-10-8-23-7-35-9-27-2-52,5-79,10-28,6-54,3-81,0-4,0-9-1-13,3Z"/></g></g><g id="Layer_7" data-name="Layer 7"><polygon class="cls-7" points="434.5 525 672 633.5 839 612.5 991 692.5 1328 744.5 1366 700.5 1366.5 484 1015 509 1082 474 999 483 756 511 408.5 498 434.5 525"/><polygon class="cls-8" points="408.5 498 528.05 502.47 562 451.5 0.5 451.5 -0.5 473.83 195.5 607.84 230.5 684.84 333.5 684.84 387.5 590.84 479.94 545.76 434.5 525 408.5 498"/></g><g id="Monstanha"><polygon class="cls-9" points="434 471 671.5 362.5 838.5 383.5 990.5 303.5 1327.5 251.5 1365.5 295.5 1366 512 1015 509 1082 474 756 511 408 498 434 471"/></g><g id="Chão"><path class="cls-10" d="M-.5,683.5s205,19,239,9,159-46,159-46h258s88,18,127,24,227-10,267-35,316,24,316,24v108H-.5Z"/></g><g id="Arvores"><path class="cls-10" d="M1333.53,665.66l12.2,2.18s-6.77-67.9,27.49-126C1373.22,541.87,1340.25,557.38,1333.53,665.66Z"/><path class="cls-10" d="M1333.36,649.09l8.61-1.43s-20.46-43.49-11.37-90.09C1330.6,557.57,1312.36,575.62,1333.36,649.09Z"/><path class="cls-10" d="M1316.37,637.06l6.37-.71s-13.36-32.71-4.91-66.59C1317.83,569.76,1303.75,582.32,1316.37,637.06Z"/><path class="cls-10" d="M1279,663.09l11.66,1.82s-7.82-64.54,23.64-120.55C1314.3,544.36,1283.21,559.8,1279,663.09Z"/><path class="cls-10" d="M1268.47,664.14l11.67.09s-17-62,5.62-121.34C1285.76,542.89,1257.6,562.51,1268.47,664.14Z"/><path class="cls-10" d="M1241.23,640.7l7.39,2.13s.2-42.36,25.1-76C1273.72,566.82,1252.36,574.27,1241.23,640.7Z"/><path class="cls-10" d="M1245.19,658.67l10.23-3.41S1222,606.16,1224,547.49C1224,547.49,1205.28,573.07,1245.19,658.67Z"/><path class="cls-10" d="M1204,645.48l8.2,1.13s-6.29-45.15,15.07-84.82C1227.31,561.79,1205.7,573,1204,645.48Z"/><path class="cls-10" d="M1203.76,664.61l11.31-4s-38-54-36.72-119.22C1178.35,541.42,1158,570.17,1203.76,664.61Z"/><path class="cls-10" d="M1151.09,657l10.57,2.52s-2.51-59.79,30.42-108.91C1192.08,550.61,1162.43,562.54,1151.09,657Z"/><path class="cls-10" d="M1138.09,658.24l10.55.2s-14.76-56.21,6.3-109.63C1154.94,548.81,1129.28,566.26,1138.09,658.24Z"/><path class="cls-10" d="M1113.59,663.57l11.8,2.23s-5.91-65.88,27.86-121.83C1153.25,544,1121.15,558.69,1113.59,663.57Z"/><path class="cls-10" d="M1117.93,651.22l9.08-.89s-18.34-46.78-5.63-94.77C1121.38,555.56,1101.1,573.13,1117.93,651.22Z"/><path class="cls-10" d="M1092.84,647.88l8.46-.65s-16.18-43.87-3.45-88.27C1097.85,559,1078.66,574.92,1092.84,647.88Z"/><path class="cls-10" d="M1057.5,650.2l4.36-3.72s-26.24-17.56-36.9-46.87C1025,599.61,1020.8,615.94,1057.5,650.2Z"/><path class="cls-10" d="M1041.45,657l4.48-3.52s-25.42-18.49-34.88-48.07C1011.05,605.4,1006.28,621.49,1041.45,657Z"/><path class="cls-10" d="M1010.18,666.72l6.18.06s-8.92-32.86,3.16-64.25C1019.52,602.53,1004.58,612.88,1010.18,666.72Z"/><path class="cls-10" d="M1015.17,680.13l7.92-3s-27.54-37.5-27.59-83.48C995.5,593.7,981.54,614.25,1015.17,680.13Z"/><path class="cls-10" d="M992.18,686.69l8.56-2.32s-25.11-41.88-20.66-89.92C980.08,594.45,963.48,614.56,992.18,686.69Z"/><path class="cls-10" d="M955,701.54l11.18.76s-12.76-60.4,12.34-116C978.54,586.31,950.42,603.51,955,701.54Z"/><path class="cls-10" d="M945.88,684.1l7.52.36s-9.39-40.38,6.7-78.06C960.1,606.4,941.45,618.34,945.88,684.1Z"/><path class="cls-10" d="M943.89,704.67l10.58-3.78s-35.92-50.42-35.09-111.58C919.38,589.31,900.41,616.38,943.89,704.67Z"/><path class="cls-10" d="M925.77,689.89l7.72-2.95s-27.19-36.48-27.56-81.43C905.93,605.51,892.42,625.7,925.77,689.89Z"/><path class="cls-10" d="M903.56,692.22l8.16-2.1s-23.38-40.07-18.61-85.65C893.11,604.47,877.11,623.38,903.56,692.22Z"/><path class="cls-10" d="M876.27,678.8l5.49-1.51s-16.22-26.81-13.48-57.65C868.28,619.64,857.67,632.58,876.27,678.8Z"/><path class="cls-10" d="M841.89,705.29l10.93,1.28s-9.62-59.85,17.67-113.17C870.49,593.4,842.08,608.91,841.89,705.29Z"/><path class="cls-10" d="M810.63,701.15l10.5,3.94s5.1-61.55,45.1-107.62C866.23,597.47,834.35,605.88,810.63,701.15Z"/><path class="cls-10" d="M800.21,708.48,812,710.76S806.4,644.83,840.43,589C840.43,589,808.25,603.59,800.21,708.48Z"/><path class="cls-10" d="M784.47,695.92l9.47,1.62s-5.62-52.65,20.65-97.9C814.59,599.64,789.09,611.86,784.47,695.92Z"/><path class="cls-10" d="M775.46,675.66l5.6-1.08s-14.16-28.06-9.07-58.7C772,615.88,760.4,628,775.46,675.66Z"/><path class="cls-10" d="M749,686.09l8,.65s-8.63-43.56,9.93-83.31C767,603.43,746.6,615.54,749,686.09Z"/><path class="cls-10" d="M740.7,698.17l10.54-1.39S728.08,643,741,586.62C741,586.62,718.09,607.87,740.7,698.17Z"/><path class="cls-10" d="M711.11,685.82,720,687s-7.29-48.69,15.34-91.75C735.32,595.2,712.11,607.55,711.11,685.82Z"/><path class="cls-10" d="M699.11,679.59l8.14.87S699.64,636,719.51,596.2C719.51,596.2,698.51,608,699.11,679.59Z"/><path class="cls-10" d="M671,658.94l5.2,3s8-32,33-52.87C709.22,609,691.68,610.74,671,658.94Z"/><path class="cls-10" d="M661.52,668.21l7.81,1.29s-4.9-43.33,16.5-80.72C685.83,588.78,664.9,599,661.52,668.21Z"/><path class="cls-10" d="M638.68,657.87l7.09-2.58s-24.31-33.72-24-74.79C621.77,580.5,609.14,598.75,638.68,657.87Z"/><path class="cls-10" d="M601.14,660.35l7.87.15s-11.06-41.94,4.62-81.82C613.63,578.68,594.5,591.72,601.14,660.35Z"/><path class="cls-10" d="M580.81,648.36l5.59.31s-6.75-30.06,5.43-57.95C591.83,590.72,577.91,599.47,580.81,648.36Z"/><path class="cls-10" d="M562,679.82l11.57-.22s-18.55-61,2.3-120.48C575.85,559.12,548.45,579.34,562,679.82Z"/><path class="cls-10" d="M533.18,670.12l9.87,1.26s-8.17-54.22,17-102.2C560,569.18,534.21,583,533.18,670.12Z"/><path class="cls-10" d="M513.93,670.84l10,1.22s-8.51-54.88,16.76-103.6C540.7,568.46,514.59,582.53,513.93,670.84Z"/><path class="cls-10" d="M509.68,675l10.52-1.33s-22.86-53.76-9.69-110C510.51,563.69,487.53,584.78,509.68,675Z"/><path class="cls-10" d="M479.32,651.78l6.25.43s-7.14-33.79,6.91-64.89C492.48,587.32,476.74,596.94,479.32,651.78Z"/><path class="cls-10" d="M467.78,656.92l7.09-.91s-15.44-36.24-6.58-74.15C468.29,581.86,452.8,596.1,467.78,656.92Z"/><path class="cls-10" d="M439.43,649.1l5.88,1.74s.4-33.8,20.45-60.52C465.76,590.32,448.68,596.15,439.43,649.1Z"/><path class="cls-10" d="M423.77,671l9.88-.21s-15.94-52,1.75-102.84C435.4,568,412.05,585.25,423.77,671Z"/><path class="cls-10" d="M391.25,666.34l9.17,1.53s-5.69-50.93,19.52-94.84C419.94,573,395.32,585,391.25,666.34Z"/><path class="cls-10" d="M375.48,664.35,382,661.2s-26.5-30.06-30.07-69.49C352,591.71,341.57,610.4,375.48,664.35Z"/><path class="cls-10" d="M333.44,666.52l6,.3s-7.38-32.1,5.48-62C344.89,604.82,330.05,614.26,333.44,666.52Z"/><path class="cls-10" d="M308.71,691.7l9.54.34S305.7,641,325.52,592.93C325.52,592.93,302.06,608.35,308.71,691.7Z"/><path class="cls-10" d="M309.9,711l11.91-3.3s-35.37-58.18-29.58-125.21C292.23,582.44,269.25,610.61,309.9,711Z"/><path class="cls-10" d="M277.35,703.42l9.37-1.26s-20.71-47.74-9.34-97.88C277.38,604.28,257.05,623.21,277.35,703.42Z"/><path class="cls-10" d="M279.81,700.77l7.31-5.22s-38.67-30.93-51.43-78.16C235.69,617.39,227,642.37,279.81,700.77Z"/><path class="cls-10" d="M238.88,705.45l7.62-1s-16.71-38.89-7.32-79.65C239.18,624.81,222.59,640.16,238.88,705.45Z"/><path class="cls-10" d="M224.77,703.74l6.63-.57s-13-34.28-3.3-69.18C228.1,634,213.16,646.64,224.77,703.74Z"/><path class="cls-10" d="M194.64,718.17l10.14,4.18s6.92-60,47.5-103.83C252.28,618.52,220.83,625.74,194.64,718.17Z"/><path class="cls-10" d="M187.91,699.76l6.5,1.62s-1.16-36.87,19.45-66.93C213.86,634.45,195.51,641.61,187.91,699.76Z"/><path class="cls-10" d="M188.27,712.36l8.68-1.69S175,667.2,182.89,619.73C182.89,619.73,164.92,638.53,188.27,712.36Z"/><path class="cls-10" d="M145.94,714.05l9.69,3.32S158.69,661,194,617.93C194,617.93,165.13,626.44,145.94,714.05Z"/><path class="cls-10" d="M140,705l7.92,2s-1.22-45,24.1-81.59C172,625.46,149.6,634.1,140,705Z"/><path class="cls-10" d="M113.92,701.06l7.42,2.71s3.23-43.39,31.16-76.08C152.5,627.69,130.08,633.8,113.92,701.06Z"/><path class="cls-10" d="M109.82,727.16l12.25-.26s-19.75-64.5,2.18-127.45C124.25,599.45,95.31,620.89,109.82,727.16Z"/><path class="cls-10" d="M76.74,714.54,87,716.69s-4-57.61,26.48-105.86C113.48,610.83,85.19,623.11,76.74,714.54Z"/><path class="cls-10" d="M72.8,689.64l5.43.73s-4.32-29.87,9.68-56.19C87.91,634.18,73.65,641.68,72.8,689.64Z"/><path class="cls-10" d="M51.2,689.74l5.69,1.6s0-32.52,19-58.46C75.84,632.88,59.48,638.69,51.2,689.74Z"/><path class="cls-10" d="M13.94,710.8l10.16,3.72s4.46-59.43,42.72-104.19C66.82,610.33,36.11,618.69,13.94,710.8Z"/><path class="cls-10" d="M6.11,705.24l9.07,2.39S14.27,656,43.72,614.28C43.72,614.28,17.88,624,6.11,705.24Z"/><path class="cls-10" d="M2.16,714.76l10.68-1.17S-9.39,658.75,4.92,602.07C4.92,602.07-18.71,623,2.16,714.76Z"/><path class="cls-10" d="M1354.77,622.38l-8.24-2.4s25.08-40.06,21.67-86.62C1368.2,533.36,1383.89,553.12,1354.77,622.38Z"/><path class="cls-10" d="M1358.17,632.52l-10.38.8s11.33-56.22-12.47-107.65C1335.32,525.67,1361.6,541.4,1358.17,632.52Z"/><path class="cls-10" d="M1340.1,614.21l-6.71,1.38s2.75-37.65-17.05-69.27C1316.34,546.32,1334.8,554.42,1340.1,614.21Z"/><path class="cls-10" d="M1308.06,642.91,1296.39,641s27.59-59,15.13-122.11C1311.52,518.89,1336.28,543.3,1308.06,642.91Z"/><path class="cls-10" d="M1298.68,636.08l-10.33-.5s18.16-54,1.08-107.68C1289.43,527.9,1313.38,546.67,1298.68,636.08Z"/><path class="cls-10" d="M1293.5,639.91l-11.1,1.2s10.3-60.62-16.9-115C1265.5,526.16,1294.18,542.15,1293.5,639.91Z"/><path class="cls-10" d="M1261.17,637.85,1251,636.18s24.17-51.53,13.33-106.7C1264.31,529.48,1285.94,550.83,1261.17,637.85Z"/><path class="cls-10" d="M1253.77,639.05l-10.43,0s15.9-55.2-3.66-108.47C1239.68,530.53,1264.62,548.37,1253.77,639.05Z"/><path class="cls-10" d="M1219.22,642.49l-10.52-3.59s34.75-50.36,33-110.79C1241.73,528.11,1260.88,554.58,1219.22,642.49Z"/><path class="cls-10" d="M1213.52,613.06l-5-.93s12.35-25,7.61-52C1216.16,560.08,1226.52,570.74,1213.52,613.06Z"/><path class="cls-10" d="M1213.65,642.73l-10.76,1.33s9.08-59-18.15-111.37C1184.74,532.69,1212.82,547.78,1213.65,642.73Z"/><path class="cls-10" d="M1177.75,636l-8.87-2.73s27.77-42.9,24.85-93.32C1193.73,540,1210.37,561.61,1177.75,636Z"/><path class="cls-10" d="M1168.14,617.56l-5.33-.75s12-27.16,5.64-55.8C1168.45,561,1180,571.88,1168.14,617.56Z"/><path class="cls-10" d="M1154,650.26l-11.41-1.09s22.88-58.84,6.74-119.1C1149.34,530.07,1174.88,552.07,1154,650.26Z"/><path class="cls-10" d="M1129.21,644.47l-10-2.21s26.65-49.53,19-104.57C1138.19,537.69,1158.37,559.93,1129.21,644.47Z"/><path class="cls-10" d="M1120.88,635.1l-8.19-.31s13.94-42.93,0-85.29C1112.66,549.5,1131.78,564.17,1120.88,635.1Z"/><path class="cls-10" d="M1097.12,628.84l-6.64-2.09s21.06-32,19.15-69.85C1109.63,556.9,1122,573.21,1097.12,628.84Z"/><path class="cls-10" d="M1095.6,660.9,1085.4,664s-.89-58.63-35.85-104.83C1049.55,559.13,1079.22,569.13,1095.6,660.9Z"/><path class="cls-10" d="M1069.12,658.33l-7.52-.05s11.51-39.8-2.56-78.25C1059,580,1077,592.92,1069.12,658.33Z"/><path class="cls-10" d="M1055.54,668.36l-7.64-.58s14.5-39.59,2.93-79.62C1050.83,588.16,1068.17,602.52,1055.54,668.36Z"/><path class="cls-10" d="M1062.78,694l-11.64,2.16s6-64.92-27.11-120.16C1024,576,1055.63,590.6,1062.78,694Z"/><path class="cls-10" d="M1041,677.82l-7.24.43s8.56-39-7.38-75C1026.41,603.21,1044.5,614.47,1041,677.82Z"/><path class="cls-10" d="M1023.91,679.64l-6.17,0s9-32.75-2.89-64.14C1014.85,615.54,1029.73,625.93,1023.91,679.64Z"/><path class="cls-10" d="M1012,693.67l-8-.37s13.93-41.7.68-83.06C1004.67,610.24,1023.17,624.68,1012,693.67Z"/><path class="cls-10" d="M989,687.48l-5.78-1.93s18.86-27.75,17.68-60.88C1000.9,624.67,1011.5,639.11,989,687.48Z"/><path class="cls-10" d="M976.94,710.32l-9.14-1.13s19.72-46.76,8.14-95.55C975.94,613.64,996,631.91,976.94,710.32Z"/><path class="cls-10" d="M966.2,727.46l-12-.94s23-62.38,5-125.56C959.13,601,986.42,623.68,966.2,727.46Z"/><path class="cls-10" d="M944.38,725.57l-11-2.22S961.66,668.2,952,607.7C952,607.7,974.73,631.79,944.38,725.57Z"/><path class="cls-10" d="M936.05,698.3l-5.44.4s6-29.46-6.38-56.45C924.23,642.25,938,650.53,936.05,698.3Z"/><path class="cls-10" d="M927.65,718.08l-9.2,1.46s6.06-50.94-18.86-95.08C899.59,624.46,924.15,636.59,927.65,718.08Z"/><path class="cls-10" d="M903.18,703.32l-6-.35s10.89-31.39,1.23-62.77C898.38,640.2,912.24,651.27,903.18,703.32Z"/><path class="cls-10" d="M882.25,710.18l-7-1.75s19.85-34.67,15.43-73.9C890.65,634.53,904.56,650.7,882.25,710.18Z"/><path class="cls-10" d="M873,716l-8.15-.1s12.77-43-2.19-84.82C862.68,631.09,882.07,645.19,873,716Z"/><path class="cls-10" d="M874.2,721.17,864.58,724s-.8-55.27-33.72-98.85C830.86,625.19,858.82,634.64,874.2,721.17Z"/><path class="cls-10" d="M857.14,722.33l-9.92,2.5s1.6-56.34-30-102.17C817.19,622.66,845.26,633.51,857.14,722.33Z"/><path class="cls-10" d="M815.3,713.24l-7.81-2s22.53-38.29,18.12-82C825.61,629.22,840.86,647.39,815.3,713.24Z"/><path class="cls-10" d="M804.84,699.35l-5.36-1.07s13.71-26.77,9-56.12C808.49,642.16,819.52,653.84,804.84,699.35Z"/><path class="cls-10" d="M812.35,711.23l-8.5,2.91s-2.68-49.42-33.68-87.25C770.17,626.89,795.53,634.36,812.35,711.23Z"/><path class="cls-10" d="M776.19,697.21l-5.78-.88s13.34-29.3,6.85-60.44C777.26,635.89,789.63,647.83,776.19,697.21Z"/><path class="cls-10" d="M778.36,706.6,770,708.75s1.08-47.32-25.69-85.66C744.35,623.09,768,632.07,778.36,706.6Z"/><path class="cls-10" d="M751.38,727.05,739,725.86s24.89-64,7.37-129.44C746.35,596.42,774.1,620.34,751.38,727.05Z"/><path class="cls-10" d="M739.07,695.18l-7.16,0s10.59-38-3.14-74.42C728.77,620.79,746,632.89,739.07,695.18Z"/><path class="cls-10" d="M735.52,701.32,726.37,703s4.87-51-21.06-94.55C705.31,608.44,730.13,620,735.52,701.32Z"/><path class="cls-10" d="M722.19,680,716,682.16s-2.24-36-25.08-63.46C690.93,618.7,709.47,624,722.19,680Z"/><path class="cls-10" d="M686.67,704.32l-11.5-2.45s30.25-57.29,20.9-120.61C696.07,581.26,719.51,606.7,686.67,704.32Z"/><path class="cls-10" d="M690.77,666.41l-6,1.42s1.5-33.87-17.09-61.73C667.69,606.1,684.47,612.89,690.77,666.41Z"/><path class="cls-10" d="M670.82,655l-5.41.12S672.86,626.3,662,599C662,599,675.14,607.86,670.82,655Z"/><path class="cls-10" d="M653.8,673,644,670.57s27.71-48.42,21.52-103.19C665.5,567.38,684.92,590,653.8,673Z"/><path class="cls-10" d="M635.89,639.87l-5.59.75s4.39-30.76-10.08-57.84C620.22,582.78,634.92,590.47,635.89,639.87Z"/><path class="cls-10" d="M618.7,646.9l-7,1S617.09,609.5,599,575.8C599,575.8,617.3,585.33,618.7,646.9Z"/><path class="cls-10" d="M602.63,657.79l-9,.86s9-49.25-12.56-93.77C581,564.88,604.2,578.2,602.63,657.79Z"/><path class="cls-10" d="M597.69,674,585.39,676s7.47-68.26-26.44-127C559,549,592,564.93,597.69,674Z"/><path class="cls-10" d="M552.76,669.13,542,665.35s36.11-51.11,35-112.94C577.08,552.41,596.36,579.7,552.76,669.13Z"/><path class="cls-10" d="M557.12,648.89l-7.31.68s7.36-39.81-10-75.83C539.79,573.74,558.51,584.54,557.12,648.89Z"/><path class="cls-10" d="M521.65,662.23l-9.46-3.08s30.54-45.54,28.29-99.67C540.48,559.48,558,583,521.65,662.23Z"/><path class="cls-10" d="M526.5,639.28l-5.6,1.91s-1.74-32.58-22.16-57.54C498.74,583.65,515.45,588.59,526.5,639.28Z"/><path class="cls-10" d="M508.28,666l-10.67,1.19s9.66-58.32-16.7-110.45C480.91,556.75,508.54,572,508.28,666Z"/><path class="cls-10" d="M483.15,647.54l-7-.1s11-36.79-1.7-72.54C474.47,574.9,491,587,483.15,647.54Z"/><path class="cls-10" d="M466.14,657.92l-8.95-.33s15.18-46.89-.11-93.13C457.08,564.46,478,580.46,466.14,657.92Z"/><path class="cls-10" d="M445.27,640.27l-5.44-1.35s15.35-26.77,11.94-57.06C451.77,581.86,462.51,594.35,445.27,640.27Z"/><path class="cls-10" d="M456.32,663.87l-10.46,3s-.32-60-35.59-107.56C410.27,559.33,440.51,569.86,456.32,663.87Z"/><path class="cls-10" d="M441.45,657.82l-9.34,3.38s-3.88-54.54-38.84-95.74C393.27,565.46,421.42,573.23,441.45,657.82Z"/><path class="cls-10" d="M421.26,668.09,410.11,670s6.47-62-24.58-115.17C385.53,554.85,415.58,569.16,421.26,668.09Z"/><path class="cls-10" d="M379.53,658.08l-6.9-.51s13-35.77,2.55-71.89C375.18,585.68,390.86,598.62,379.53,658.08Z"/><path class="cls-10" d="M363.72,676.55l-8.78-1.17s19.4-44.81,8.69-91.85C363.63,583.53,382.72,601.29,363.72,676.55Z"/><path class="cls-10" d="M347,692.72,336.92,691s24.29-51,13.85-105.85C350.77,585.15,372.12,606.47,347,692.72Z"/><path class="cls-10" d="M338.51,699.66l-10-.88s19.7-51.82,5.14-104.62C333.63,594.16,356.19,613.32,338.51,699.66Z"/><path class="cls-10" d="M327,715.5l-11.6-.87s22-60.14,4.36-120.91C319.71,593.72,346.06,615.5,327,715.5Z"/><path class="cls-10" d="M314.18,704.05l-7.86-.3s13.38-41.2,0-81.85C306.3,621.9,324.65,636,314.18,704.05Z"/><path class="cls-10" d="M315,725.91,304.21,728s4.84-60.11-26.41-110.83C277.8,617.21,307.18,630.36,315,725.91Z"/><path class="cls-10" d="M296.08,735l-10.92.81s12.06-59.06-12.82-113.18C272.34,622.66,299.92,639.26,296.08,735Z"/><path class="cls-10" d="M275.92,714.09l-5.28.07s7.56-28-2.79-54.79C267.85,659.37,280.62,668.17,275.92,714.09Z"/><path class="cls-10" d="M249.45,747l-9.85-3.26s32.06-47.29,30-103.69C269.59,640.09,287.67,664.65,249.45,747Z"/><path class="cls-10" d="M259.88,749.51l-9.06,1.81s4-50.74-22.37-93.53C228.45,657.79,253.26,668.87,259.88,749.51Z"/><path class="cls-10" d="M238.69,765.16l-10.52-.29s17.35-55.35-1.14-109.6C227,655.27,251.79,673.88,238.69,765.16Z"/><path class="cls-10" d="M233.61,760.91l-9.17.26s12.39-49-6.36-95.35C218.08,665.82,240.54,680.8,233.61,760.91Z"/><path class="cls-10" d="M213.26,766,203,764s26.13-51.64,16.8-108C219.75,655.94,241.08,678.3,213.26,766Z"/><path class="cls-10" d="M190.44,759.06l-9.16-3s29.58-44,27.44-96.43C208.72,659.64,225.61,682.39,190.44,759.06Z"/><path class="cls-10" d="M181.68,773l-12.28-1.65S196.6,708.75,181.73,643C181.73,643,208.38,667.83,181.68,773Z"/><path class="cls-10" d="M181.6,749.08l-8.25,1.38s5.07-45.77-17.63-85.2C155.72,665.26,177.85,676,181.6,749.08Z"/><path class="cls-10" d="M156.29,734l-5.38-.41s10.24-27.93,2.1-56.17C153,677.4,165.24,687.54,156.29,734Z"/><path class="cls-10" d="M144.4,748.24l-8.37-.3s14.16-44-.23-87.26C135.8,660.68,155.4,675.65,144.4,748.24Z"/><path class="cls-10" d="M122.62,729.29,117.76,728s14.31-23.79,11.82-51.1C129.58,676.86,139,688.3,122.62,729.29Z"/><path class="cls-10" d="M111.81,762.72l-11.57-1.21s23.77-59.47,8-120.73C108.21,640.78,133.9,663.34,111.81,762.72Z"/><path class="cls-10" d="M103,764.67l-12.38.23s17.36-66-7.34-128.67C83.23,636.23,113.33,656.73,103,764.67Z"/><path class="cls-10" d="M94.08,756.68l-11.18,1.2s10.37-61-17-115.75C65.89,642.13,94.76,658.24,94.08,756.68Z"/><path class="cls-10" d="M79.11,756.47,67.64,758.1s8.61-63.25-21.47-118.69C46.17,639.41,76.47,655,79.11,756.47Z"/><path class="cls-10" d="M41.94,730.58l-6.3-2.23s21.28-30.07,20.67-66.47C56.31,661.88,67.65,678,41.94,730.58Z"/><path class="cls-10" d="M49.7,748.1l-10.46,2.15s4.27-58.64-26.58-107.87C12.66,642.38,41.42,655,49.7,748.1Z"/><path class="cls-10" d="M1.51,754.13l-11.21-4s38-53.42,37.15-118.2C27.45,631.93,47.55,660.6,1.51,754.13Z"/><path class="cls-10" d="M20.16,755,7.87,757.11s7.44-68.24-26.48-127C-18.61,630.13,14.41,646.05,20.16,755Z"/><path class="cls-10" d="M84.16,666.31a216.21,216.21,0,0,0,55.93-15.94S88.55,652.61,47,645.51c22.43-.52,49.58-5,79.28-17.86,0,0-36.26,1.58-72.48-2.11a145,145,0,0,0,13.37-5.88c-.7.14-20.1,4-39.2-1.84,2.56-.08,5.32-.29,8.23-.6,23.91,1.6,55-.9,89.85-14.84,0,0-8.24.12-20.74-.27,3.1-.89,4.89-1.43,4.89-1.43q-9.28.62-17.71.9h0c-12.87-.68-28-1.89-42.83-4.06A178.64,178.64,0,0,0,88.9,589.6s-7.45-.41-18.19-1.73a68.45,68.45,0,0,0,11.53-3.78c-8.51-1.54-16.19-3.31-23-5.13a147.56,147.56,0,0,0,39.39-9.86s-33-3.22-63.09-13.06c14.87.71,32.91-1.22,53.08-8.93a357.5,357.5,0,0,1-37-3.71,125,125,0,0,0,25.1-8.53s-31.75,3.33-56-4c13.15,2.78,31.54,3.35,57-1.53a148.71,148.71,0,0,1-38.65-6.94,220.31,220.31,0,0,0,29.81-2A140.65,140.65,0,0,1,26.4,508.21,98.72,98.72,0,0,0,62,507a215.07,215.07,0,0,1-39.54-18.15c18.68,3.09,36.08-2.7,36.08-2.7a184.92,184.92,0,0,1-31.47-11.3,57,57,0,0,0,18.44-3.15A116,116,0,0,1,16.66,463c20.5,5.43,43.44,5.64,43.44,5.64a176.45,176.45,0,0,1-24.32-10A101,101,0,0,0,70,456.75a292.37,292.37,0,0,1-34.61-12A68.32,68.32,0,0,0,55,434s-24.16,4.64-42.63-4c13.28-.29,29.43-3.57,47.13-13.26a271.31,271.31,0,0,1-38.94-1.13,38.59,38.59,0,0,0,9-7.27S11.46,412-1.57,402.49C16.6,407.9,41,406.25,41,406.25c-11.2-3-22.07-6.7-31-10.05,12.74,3.26,29.41,4.76,49.29.39,0,0-41.1-7.69-61.63-21.41a258.23,258.23,0,0,0,34.12,7.23,147.33,147.33,0,0,1-24.86-9.9c8.4.37,18.73-1.08,30.32-6.62,0,0-19.67-.24-34.95-4.9a50.33,50.33,0,0,0,23.48-1.75S10.87,356.91-.4,351.78c6,1.17,14.31,1.54,25.79-.15,0,0-13.71-.43-25.11-5.62C13.8,347.62,27.8,344,27.8,344a125.22,125.22,0,0,1-20.14-4A65,65,0,0,0,31,337.78a194.05,194.05,0,0,1-21.27-7,25.27,25.27,0,0,0,5.14-1.28,121.18,121.18,0,0,1-19.21-8c4.87,1.28,11.13.73,19.08-3.39,0,0-10.4-2.95-18.38-9.09a36,36,0,0,0,15.4,4.53,110.64,110.64,0,0,1-13-10.92,25.33,25.33,0,0,0,9.85-1.66,25.36,25.36,0,0,1-13.86-4.28,125,125,0,0,0,14.65,1.93,71.48,71.48,0,0,1-11.91-5.13,43,43,0,0,0,15.35.82,116.33,116.33,0,0,1-18.25-7.51A16.74,16.74,0,0,0,4,283s-16.68-1.85-19.71-10.91h0l-.1-2.24s0-1.68-.73-1.68-.74,1.68-.74,1.68l-.28,4.9h0c-1.17,2.85-4,5.47-7.42,7.73-6.18,1.41-12.5-1-12.88-1.12a35,35,0,0,0,7.41,4.3,90.12,90.12,0,0,1-11.71,4.95,32.36,32.36,0,0,0,16-.78A69.87,69.87,0,0,1-41,298a39.77,39.77,0,0,0,13.54-.58,58.13,58.13,0,0,1-13,9,32.05,32.05,0,0,0,7.95,2.18,108.33,108.33,0,0,1-14.17,8.86A39.73,39.73,0,0,0-31.4,316a117.78,117.78,0,0,1-20.36,11.3,62.28,62.28,0,0,0,14.5.25,126,126,0,0,1-22.17,3.63,46.09,46.09,0,0,0,12.13,5.25,21.39,21.39,0,0,1-14.67.38,23.61,23.61,0,0,0,22,1.52,61.71,61.71,0,0,1-12,6.46,117.54,117.54,0,0,0,21.91-5.27c-12.45,6.78-30.72,11-30.72,11,16,6.22,28.09,4,34.56,1.77-8,7.19-22.56,4.63-23.36,4.49a68.5,68.5,0,0,0,12.82,3.63A141.63,141.63,0,0,1-58,362.71S-38.87,368-25.54,367c-.25.18-.52.35-.79.51l0-.16-.06.22c-11.46,6.94-38.39,5.64-38.39,5.64,11.81,6.65,22.47,7.23,30.07,6.21a29.28,29.28,0,0,1-13,4.67,40,40,0,0,0,6.19.92c-1.38.73-2.8,1.43-4.25,2.12A60.91,60.91,0,0,1-70,391c2.75,1.14,5.32,2.06,7.71,2.8a275.55,275.55,0,0,1-26.46,7.84,87.24,87.24,0,0,0,36.11,1.13c-6,3.32-12.74,6.77-19.64,9.85,0,0,18.51.19,33.34-6C-48.15,415.45-62,422-62,422a65,65,0,0,0,10.6-1.84C-72.35,433.34-98,443.23-98,443.23a101.59,101.59,0,0,0,33.45-.66c-4.17,3-8.83,6.22-13.92,9.43,0,0,20.57-2.07,37.82-11.52a189.78,189.78,0,0,1-22.2,14.78,58,58,0,0,0,19-2.62c-21.26,15-53.77,27.65-53.77,27.65a126.75,126.75,0,0,0,34-3.3,46,46,0,0,1-22,8.08c21.4,1.92,34.89-8.8,40.09-14,.72-.3,1.43-.61,2.12-.92A94.33,94.33,0,0,1-63,491a118.2,118.2,0,0,0,27.73-14.81c-4.79,6.17-12.39,11.73-21.08,16.61a239.74,239.74,0,0,1-30.93,8.42,63.12,63.12,0,0,0,7.81,2.34,317.24,317.24,0,0,1-38.22,12.17c28.13,4.75,49,3.17,64.41-1.05A129.71,129.71,0,0,1-79,525a79.38,79.38,0,0,0,22.89,4.08c-9.92,5.38-23.29,11.08-41,15.91,0,0,8.37.94,19.83,1.16a343.59,343.59,0,0,1-40.69,9.22c24.7,6.45,45.43,5,61,1.18-30.6,19.11-73.21,17.36-73.21,17.36,31.31,8.19,53.55,8.29,69.09,5.25-36.42,15.18-90.2,22.53-90.2,22.53a200.5,200.5,0,0,0,36.44,5.11c-6.49,2.05-13.74,4.13-21.84,6.2,0,0,62.92-5.32,87.07-14.78C-89.86,622.47-169,631.06-169,631.06c39.66,12.9,73.2,11.73,98.28,6.4-43.91,17.91-105.1,27.16-105.1,27.16A238.22,238.22,0,0,0-112.1,670a86.21,86.21,0,0,1-43.21,7.48c38.76,10.74,67.2-4.44,78.54-12.27,3-.65,5.84-1.35,8.59-2.08A181.46,181.46,0,0,1-101.56,691s34.8-12.4,61.8-30.32L-43,717H4L1.58,662.43c27.27,16.81,75.25,24.22,76.81,24.45a165.55,165.55,0,0,1-34.61-19q3.88.25,8,.36c11.48,5,39.48,13.56,72.16-2.77A78.47,78.47,0,0,1,84.16,666.31Z"/><path class="cls-10" d="M158.92,676.19A144.37,144.37,0,0,0,200,662.85s-37.86,1.87-68.35-4.07c16.48-.43,36.42-4.17,58.24-14.94a369,369,0,0,1-53.24-1.77,101,101,0,0,0,9.82-4.92c-.52.12-14.77,3.36-28.8-1.54,1.88-.07,3.91-.24,6-.5,17.56,1.34,40.36-.76,66-12.42,0,0-6.06.1-15.24-.23,2.28-.74,3.59-1.19,3.59-1.19-4.54.34-8.88.58-13,.75h0a306,306,0,0,1-31.46-3.4A116.92,116.92,0,0,0,162.4,612s-5.47-.34-13.36-1.44a46.19,46.19,0,0,0,8.47-3.17c-6.25-1.29-11.89-2.77-16.87-4.29a97.83,97.83,0,0,0,28.93-8.25s-24.26-2.7-46.34-10.93c10.92.59,24.17-1,39-7.47a231.79,231.79,0,0,1-27.17-3.11,84,84,0,0,0,18.43-7.14s-23.32,2.79-41.15-3.38c9.66,2.33,23.16,2.81,41.85-1.28a97.29,97.29,0,0,1-28.39-5.8,142.48,142.48,0,0,0,21.9-1.7,93.73,93.73,0,0,1-31.2-10.15,63.69,63.69,0,0,0,26.15-1,148.7,148.7,0,0,1-29-15.19c13.72,2.59,26.5-2.26,26.5-2.26A125.27,125.27,0,0,1,117,516a37.54,37.54,0,0,0,13.55-2.64A77.28,77.28,0,0,1,109.34,506c15.06,4.55,31.91,4.72,31.91,4.72a121.79,121.79,0,0,1-17.87-8.38,65.43,65.43,0,0,0,25.14-1.56,197.88,197.88,0,0,1-25.43-10,48.67,48.67,0,0,0,14.41-9s-17.75,3.88-31.31-3.37c9.75-.24,21.61-3,34.61-11.1a175.39,175.39,0,0,1-28.6-.94,29.48,29.48,0,0,0,6.63-6.09s-13.31,3.09-22.88-4.87c13.34,4.53,31.27,3.15,31.27,3.15a233.19,233.19,0,0,1-22.8-8.41,68.41,68.41,0,0,0,36.2.33S110.43,444,95.35,432.56a169.76,169.76,0,0,0,25.06,6.05,101.11,101.11,0,0,1-18.26-8.29c6.17.31,13.76-.9,22.27-5.54,0,0-14.44-.2-25.67-4.1A32.67,32.67,0,0,0,116,419.22s-10.92-2-19.19-6.24c4.39,1,10.51,1.29,18.94-.13,0,0-10.07-.36-18.44-4.7,9.93,1.35,20.21-1.72,20.21-1.72a81.73,81.73,0,0,1-14.79-3.31,42.08,42.08,0,0,0,17.14-1.86,129.88,129.88,0,0,1-15.62-5.88,17.19,17.19,0,0,0,3.77-1.07,84,84,0,0,1-14.11-6.71c3.58,1.07,8.18.61,14-2.84a43.61,43.61,0,0,1-13.5-7.61,24.08,24.08,0,0,0,11.31,3.79,84,84,0,0,1-9.57-9.14,16.37,16.37,0,0,0,7.23-1.39,16.88,16.88,0,0,1-10.18-3.58A80.44,80.44,0,0,0,104,368.45a49.91,49.91,0,0,1-8.75-4.29,27.94,27.94,0,0,0,11.28.68,80.37,80.37,0,0,1-13.41-6.28,11.52,11.52,0,0,0,6.94-3.14s-12.25-1.55-14.48-9.13h0l-.07-1.87s0-1.41-.54-1.41-.54,1.41-.54,1.41l-.21,4.1h0c-.86,2.39-3,4.58-5.45,6.47-4.54,1.18-9.18-.82-9.46-.93a25.14,25.14,0,0,0,5.44,3.59,62.21,62.21,0,0,1-8.6,4.15,21,21,0,0,0,11.73-.66A49.84,49.84,0,0,1,67,368a25.76,25.76,0,0,0,10-.48A42.81,42.81,0,0,1,67.34,375a21.43,21.43,0,0,0,5.84,1.82,79.25,79.25,0,0,1-10.4,7.42A25.74,25.74,0,0,0,74,383a84,84,0,0,1-15,9.46,40.73,40.73,0,0,0,10.65.21,82.1,82.1,0,0,1-16.28,3,31.81,31.81,0,0,0,8.91,4.4,14,14,0,0,1-10.78.32c7,4.65,13.11,2.81,16.16,1.27a43.59,43.59,0,0,1-8.81,5.4A77.31,77.31,0,0,0,75,402.68c-9.14,5.68-22.56,9.2-22.56,9.2,11.72,5.21,20.63,3.37,25.38,1.48-5.9,6-16.57,3.88-17.16,3.76a45.8,45.8,0,0,0,9.42,3,91.82,91.82,0,0,1-15.57,2s14,4.44,23.81,3.59a6.13,6.13,0,0,1-.58.42l0-.13c0,.06,0,.12,0,.18C69.28,432,49.5,430.9,49.5,430.9c8.67,5.57,16.5,6.05,22.08,5.2A19.73,19.73,0,0,1,62,440a26.7,26.7,0,0,0,4.55.77c-1,.61-2.06,1.19-3.12,1.77a39.76,39.76,0,0,1-17.76,3.25,60.84,60.84,0,0,0,5.67,2.34,183.55,183.55,0,0,1-19.44,6.56,56.34,56.34,0,0,0,26.52.95c-4.42,2.78-9.35,5.66-14.42,8.24,0,0,13.59.16,24.49-5-6.77,7.38-16.94,12.86-16.94,12.86a43,43,0,0,0,7.79-1.54c-15.39,11-34.23,19.31-34.23,19.31A65.59,65.59,0,0,0,49.69,489c-3.07,2.55-6.49,5.21-10.23,7.9,0,0,15.11-1.74,27.78-9.65a138.69,138.69,0,0,1-16.31,12.37,37.53,37.53,0,0,0,13.93-2.19c-15.61,12.52-39.49,23.14-39.49,23.14a82.25,82.25,0,0,0,25-2.76,31,31,0,0,1-16.14,6.76,34.24,34.24,0,0,0,29.45-11.71c.53-.25,1-.51,1.55-.77a75.64,75.64,0,0,1-14.38,17.43A83.43,83.43,0,0,0,71.2,517.08c-3.52,5.16-9.1,9.82-15.48,13.9A159.82,159.82,0,0,1,33,538a42.16,42.16,0,0,0,5.73,2,211.53,211.53,0,0,1-28.07,10.19c20.66,4,36,2.65,47.31-.88a88.38,88.38,0,0,1-18.9,8.64,52,52,0,0,0,16.82,3.42A131.34,131.34,0,0,1,25.8,574.66s6.15.79,14.57,1a226.35,226.35,0,0,1-29.89,7.72c18.14,5.4,33.37,4.15,44.82,1-22.48,16-53.78,14.52-53.78,14.52,23,6.86,39.34,6.94,50.75,4.4C25.52,616-14,622.11-14,622.11a130.53,130.53,0,0,0,26.76,4.28c-4.76,1.71-10.09,3.45-16,5.19,0,0,46.22-4.46,64-12.37-29.6,20.29-87.76,27.48-87.76,27.48,29.13,10.8,53.76,9.82,72.18,5.36-32.25,15-77.19,22.72-77.19,22.72a154.19,154.19,0,0,0,46.83,4.51A56.41,56.41,0,0,1-17,685.54a61.76,61.76,0,0,0,57.69-10.27c2.18-.55,4.29-1.13,6.31-1.74A139.06,139.06,0,0,1,22.5,696.85s25.56-10.38,45.4-25.37l-2.38,47.13H100l-1.78-45.67c20,14.07,55.27,20.27,56.42,20.46a118.54,118.54,0,0,1-25.42-15.91q2.85.21,5.9.3c8.44,4.18,29,11.34,53-2.32A50.88,50.88,0,0,1,158.92,676.19Z"/><path class="cls-10" d="M250.71,682.26A126.91,126.91,0,0,0,281,674.48s-27.92,1.1-50.4-2.37a124.86,124.86,0,0,0,42.94-8.71,344.07,344.07,0,0,1-39.26-1c2.26-.77,4.67-1.72,7.24-2.87a53.07,53.07,0,0,1-21.23-.9c1.39,0,2.88-.14,4.46-.29a121.78,121.78,0,0,0,48.67-7.24s-4.47.06-11.24-.13l2.65-.7c-3.35.2-6.55.34-9.59.44h0c-7-.33-15.18-.92-23.2-2a105.91,105.91,0,0,0,21.24-3.87s-4-.2-9.85-.84a39.76,39.76,0,0,0,6.25-1.85c-4.61-.75-8.77-1.61-12.45-2.5a87.07,87.07,0,0,0,21.34-4.81,201.71,201.71,0,0,1-34.17-6.37,77.68,77.68,0,0,0,28.75-4.36s-9.32-.31-20-1.81a72.58,72.58,0,0,0,13.6-4.16s-17.2,1.62-30.35-2c7.12,1.35,17.08,1.63,30.86-.75A88.47,88.47,0,0,1,226.28,612a132.62,132.62,0,0,0,16.14-1,82.61,82.61,0,0,1-23-5.92,59.14,59.14,0,0,0,19.28-.59,123.33,123.33,0,0,1-21.41-8.85,50.66,50.66,0,0,0,19.54-1.32,108.69,108.69,0,0,1-17.05-5.51,33.9,33.9,0,0,0,10-1.54,68.59,68.59,0,0,1-15.63-4.25,121.71,121.71,0,0,0,23.53,2.75,100.85,100.85,0,0,1-13.17-4.89A60.23,60.23,0,0,0,243,580a168.51,168.51,0,0,1-18.75-5.85,38.36,38.36,0,0,0,10.62-5.25s-13.09,2.27-23.09-2a60.06,60.06,0,0,0,25.53-6.47,162.65,162.65,0,0,1-21.09-.55,20.86,20.86,0,0,0,4.88-3.55s-9.81,1.8-16.87-2.84c9.84,2.64,23.06,1.84,23.06,1.84-6.07-1.47-12-3.27-16.82-4.91a63.4,63.4,0,0,0,26.7.19s-22.26-3.75-33.38-10.44a151.66,151.66,0,0,0,18.48,3.52,84.7,84.7,0,0,1-13.46-4.83,37.41,37.41,0,0,0,16.42-3.23s-10.66-.11-18.93-2.39a30.12,30.12,0,0,0,12.72-.85,70.46,70.46,0,0,1-14.16-3.64,46.37,46.37,0,0,0,14-.07,44.66,44.66,0,0,1-13.6-2.75,50.84,50.84,0,0,0,14.91-1,74.66,74.66,0,0,1-10.91-1.93A39,39,0,0,0,221.91,522a114.67,114.67,0,0,1-11.52-3.43,14.57,14.57,0,0,0,2.78-.63,69.19,69.19,0,0,1-10.4-3.91c2.64.63,6,.36,10.33-1.65a35.54,35.54,0,0,1-9.95-4.44,21,21,0,0,0,8.34,2.21,58.35,58.35,0,0,1-7.06-5.33,14.92,14.92,0,0,0,5.34-.81,14.86,14.86,0,0,1-7.51-2.08,77,77,0,0,0,7.93.94,41.33,41.33,0,0,1-6.45-2.51,25.54,25.54,0,0,0,8.32.4,67.31,67.31,0,0,1-9.89-3.66,9.68,9.68,0,0,0,5.12-1.83s-9-.9-10.68-5.32h0l-.05-1.09s0-.82-.4-.82-.4.82-.4.82l-.15,2.39h0a10.05,10.05,0,0,1-4,3.77,14.89,14.89,0,0,1-7-.55,19.61,19.61,0,0,0,4,2.1,52.18,52.18,0,0,1-6.35,2.41,19.33,19.33,0,0,0,8.65-.38,39.34,39.34,0,0,1-8,4,24.05,24.05,0,0,0,7.34-.28,32,32,0,0,1-7.07,4.39,18.72,18.72,0,0,0,4.3,1.06,59.79,59.79,0,0,1-7.67,4.32,23.63,23.63,0,0,0,8.3-.73,66.08,66.08,0,0,1-11,5.52,37.54,37.54,0,0,0,7.86.12,75.82,75.82,0,0,1-12,1.77,26.52,26.52,0,0,0,6.57,2.56,12.87,12.87,0,0,1-7.95.19,14.08,14.08,0,0,0,11.92.74,35.29,35.29,0,0,1-6.5,3.15,70.63,70.63,0,0,0,11.87-2.57c-6.75,3.31-16.64,5.36-16.64,5.36,8.64,3,15.21,2,18.72.86-4.35,3.51-12.22,2.26-12.66,2.19a40.85,40.85,0,0,0,7,1.78,85.46,85.46,0,0,1-11.48,1.14s10.34,2.59,17.56,2.09l-.43.25,0-.08,0,.11c-6.21,3.38-20.8,2.75-20.8,2.75a28.22,28.22,0,0,0,16.29,3,17.19,17.19,0,0,1-7.06,2.28,24,24,0,0,0,3.36.45c-.75.35-1.52.69-2.3,1a36.41,36.41,0,0,1-13.1,1.89c1.49.56,2.89,1,4.18,1.37-7.62,2.43-14.33,3.83-14.33,3.83a52.41,52.41,0,0,0,19.56.55c-3.26,1.62-6.9,3.3-10.64,4.8,0,0,10,.1,18.06-2.92-5,4.3-12.49,7.5-12.49,7.5a38.67,38.67,0,0,0,5.74-.9A179,179,0,0,1,152,573.42a61.06,61.06,0,0,0,18.12-.32c-2.26,1.48-4.79,3-7.54,4.6,0,0,11.14-1,20.48-5.62a105.31,105.31,0,0,1-12,7.21A34.81,34.81,0,0,0,181.35,578c-11.52,7.3-29.13,13.49-29.13,13.49a75.77,75.77,0,0,0,18.43-1.61,26.79,26.79,0,0,1-11.91,3.94c11.59.94,18.9-4.29,21.72-6.82l1.15-.45A48.39,48.39,0,0,1,171,596.72a66.93,66.93,0,0,0,15-7.23c-2.59,3-6.71,5.73-11.42,8.11a143.23,143.23,0,0,1-16.75,4.11,38.19,38.19,0,0,0,4.23,1.14,186.54,186.54,0,0,1-20.7,5.94c15.23,2.31,26.55,1.54,34.89-.52a75.24,75.24,0,0,1-13.94,5,46.89,46.89,0,0,0,12.4,2,111,111,0,0,1-22.19,7.77s4.53.46,10.74.56a202.75,202.75,0,0,1-22,4.5,74.27,74.27,0,0,0,33,.58c-16.57,9.32-39.65,8.47-39.65,8.47,17,4,29,4,37.42,2.56-19.72,7.41-48.86,11-48.86,11a118.89,118.89,0,0,0,19.74,2.49c-3.51,1-7.44,2-11.83,3,0,0,34.08-2.6,47.17-7.21-21.83,11.83-64.72,16-64.72,16,21.48,6.3,39.65,5.72,53.23,3.12-23.78,8.74-56.93,13.26-56.93,13.26a143.16,143.16,0,0,0,34.54,2.62A51.44,51.44,0,0,1,121,687.71c21,5.24,36.4-2.17,42.55-6,1.61-.31,3.16-.66,4.65-1a97,97,0,0,1-18.08,13.6s18.85-6,33.47-14.8L181.83,707h25.46L206,680.37c14.77,8.2,40.75,11.81,41.6,11.93A93.71,93.71,0,0,1,228.83,683c1.41.08,2.86.14,4.36.17a50.38,50.38,0,0,0,39.08-1.35A46.84,46.84,0,0,1,250.71,682.26Z"/><path class="cls-10" d="M1318.16,659.88a216.21,216.21,0,0,0,55.93-15.94s-51.54,2.24-93-4.86c22.43-.52,49.58-5,79.28-17.86,0,0-36.26,1.58-72.48-2.11a145,145,0,0,0,13.37-5.88c-.7.14-20.1,4-39.2-1.84,2.56-.08,5.32-.29,8.23-.6,23.91,1.6,55-.9,89.85-14.84,0,0-8.24.12-20.74-.27,3.1-.89,4.89-1.43,4.89-1.43q-9.29.62-17.71.9h0c-12.87-.68-28-1.89-42.83-4.06a178.64,178.64,0,0,0,39.22-7.92s-7.45-.41-18.19-1.73a68.45,68.45,0,0,0,11.53-3.78c-8.51-1.54-16.19-3.31-23-5.13a147.56,147.56,0,0,0,39.39-9.86s-33-3.22-63.09-13.06c14.87.71,32.91-1.22,53.08-8.93a357.5,357.5,0,0,1-37-3.71,125,125,0,0,0,25.1-8.53s-31.75,3.33-56-4c13.15,2.78,31.54,3.35,57-1.53a148.71,148.71,0,0,1-38.65-6.94,220.31,220.31,0,0,0,29.81-2,140.65,140.65,0,0,1-42.47-12.13,98.72,98.72,0,0,0,35.6-1.21,215.07,215.07,0,0,1-39.54-18.15c18.68,3.09,36.08-2.7,36.08-2.7a184.92,184.92,0,0,1-31.47-11.3,57,57,0,0,0,18.44-3.15,116,116,0,0,1-28.85-8.71c20.5,5.43,43.44,5.64,43.44,5.64a176.45,176.45,0,0,1-24.32-10,101,101,0,0,0,34.22-1.86,292.37,292.37,0,0,1-34.61-12A68.32,68.32,0,0,0,1289,427.57s-24.16,4.64-42.63-4c13.28-.29,29.43-3.57,47.13-13.26a271.31,271.31,0,0,1-38.94-1.13,38.59,38.59,0,0,0,9-7.27s-18.12,3.69-31.15-5.82c18.17,5.41,42.57,3.76,42.57,3.76-11.2-3-22.07-6.7-31-10.05,12.74,3.26,29.41,4.76,49.29.39,0,0-41.1-7.69-61.63-21.41a258.23,258.23,0,0,0,34.12,7.23,147.33,147.33,0,0,1-24.86-9.9c8.4.37,18.73-1.08,30.32-6.62,0,0-19.67-.24-35-4.9a50.33,50.33,0,0,0,23.48-1.75s-14.86-2.33-26.13-7.46c6,1.17,14.31,1.54,25.79-.15,0,0-13.71-.43-25.11-5.62,13.52,1.61,27.52-2.05,27.52-2.05a125.22,125.22,0,0,1-20.14-4,65,65,0,0,0,23.34-2.22,194.05,194.05,0,0,1-21.27-7,25.27,25.27,0,0,0,5.14-1.28,121.18,121.18,0,0,1-19.21-8c4.87,1.28,11.13.73,19.08-3.39,0,0-10.4-2.95-18.38-9.09a36,36,0,0,0,15.4,4.53,110.64,110.64,0,0,1-13-10.92,25.33,25.33,0,0,0,9.85-1.66,25.36,25.36,0,0,1-13.86-4.28,125,125,0,0,0,14.65,1.93,71.48,71.48,0,0,1-11.91-5.13,43,43,0,0,0,15.35.82,116.33,116.33,0,0,1-18.25-7.51,16.74,16.74,0,0,0,9.44-3.75s-16.68-1.85-19.71-10.91h0l-.1-2.24s0-1.68-.73-1.68-.74,1.68-.74,1.68l-.28,4.9h0c-1.17,2.85-4,5.47-7.42,7.73-6.18,1.41-12.5-1-12.88-1.12a35,35,0,0,0,7.41,4.3,90.12,90.12,0,0,1-11.71,4.95,32.36,32.36,0,0,0,16-.78,69.87,69.87,0,0,1-14.8,8.17,39.77,39.77,0,0,0,13.54-.58,58.13,58.13,0,0,1-13,9,32.05,32.05,0,0,0,8,2.18,108.33,108.33,0,0,1-14.17,8.86,39.73,39.73,0,0,0,15.33-1.5,117.78,117.78,0,0,1-20.36,11.3,62.28,62.28,0,0,0,14.5.25,126,126,0,0,1-22.17,3.63A46.09,46.09,0,0,0,1186.7,330a21.39,21.39,0,0,1-14.67.38,23.61,23.61,0,0,0,22,1.52,61.71,61.71,0,0,1-12,6.46,117.54,117.54,0,0,0,21.91-5.27c-12.45,6.78-30.72,11-30.72,11,16,6.22,28.09,4,34.56,1.77-8,7.19-22.56,4.63-23.36,4.49a68.5,68.5,0,0,0,12.82,3.63,141.63,141.63,0,0,1-21.2,2.35s19.09,5.3,32.42,4.28c-.25.18-.52.35-.79.51l0-.16-.06.22c-11.46,6.94-38.39,5.64-38.39,5.64,11.81,6.65,22.47,7.23,30.07,6.21a29.28,29.28,0,0,1-13,4.67,40,40,0,0,0,6.19.92c-1.38.73-2.8,1.43-4.25,2.12a60.91,60.91,0,0,1-24.17,3.88c2.75,1.14,5.32,2.06,7.71,2.8a275.55,275.55,0,0,1-26.46,7.84,87.24,87.24,0,0,0,36.11,1.13c-6,3.32-12.74,6.77-19.64,9.85,0,0,18.51.19,33.34-6-9.21,8.82-23.06,15.37-23.06,15.37a65,65,0,0,0,10.6-1.84c-20.95,13.18-46.6,23.07-46.6,23.07a101.59,101.59,0,0,0,33.45-.66c-4.17,3-8.83,6.22-13.92,9.43,0,0,20.57-2.07,37.82-11.52a189.78,189.78,0,0,1-22.2,14.78,58,58,0,0,0,19-2.62c-21.26,15-53.77,27.65-53.77,27.65a126.75,126.75,0,0,0,34-3.3,46,46,0,0,1-22,8.08c21.4,1.92,34.89-8.8,40.09-14,.72-.3,1.43-.61,2.12-.92A94.33,94.33,0,0,1,1171,484.56a118.2,118.2,0,0,0,27.73-14.81c-4.79,6.17-12.39,11.73-21.08,16.61a239.74,239.74,0,0,1-30.93,8.42,63.12,63.12,0,0,0,7.81,2.34,317.24,317.24,0,0,1-38.22,12.17c28.13,4.75,49,3.17,64.41-1.05A129.71,129.71,0,0,1,1155,518.57a79.38,79.38,0,0,0,22.89,4.08c-9.92,5.38-23.29,11.08-41,15.91,0,0,8.37.94,19.83,1.16a343.59,343.59,0,0,1-40.69,9.22c24.7,6.45,45.43,5,61,1.18-30.6,19.11-73.21,17.36-73.21,17.36,31.31,8.19,53.55,8.29,69.09,5.25-36.42,15.18-90.2,22.53-90.2,22.53a200.5,200.5,0,0,0,36.44,5.11c-6.49,2-13.74,4.13-21.84,6.2,0,0,62.92-5.32,87.07-14.78C1144.14,616,1065,624.63,1065,624.63c39.66,12.9,73.2,11.73,98.28,6.4-43.91,17.91-105.1,27.16-105.1,27.16a238.22,238.22,0,0,0,63.76,5.38,86.21,86.21,0,0,1-43.21,7.48c38.76,10.74,67.2-4.44,78.54-12.27,3-.65,5.84-1.35,8.59-2.08a181.46,181.46,0,0,1-33.38,27.87s34.8-12.4,61.8-30.32L1191,710.57h47L1235.58,656c27.27,16.81,75.25,24.22,76.81,24.45a165.55,165.55,0,0,1-34.61-19q3.88.26,8,.36c11.48,5,39.48,13.56,72.16-2.77A78.47,78.47,0,0,1,1318.16,659.88Z"/><path class="cls-10" d="M1392.92,669.76A144.37,144.37,0,0,0,1434,656.42s-37.86,1.87-68.35-4.07c16.48-.44,36.42-4.18,58.23-15a369.74,369.74,0,0,1-53.23-1.76,103.35,103.35,0,0,0,9.82-4.92c-.52.11-14.77,3.35-28.8-1.54,1.88-.07,3.91-.25,6-.51,17.56,1.34,40.36-.75,66-12.41,0,0-6.06.1-15.24-.23,2.28-.75,3.59-1.2,3.59-1.2-4.54.35-8.88.59-13,.76h0a308.76,308.76,0,0,1-31.46-3.4,117.38,117.38,0,0,0,28.81-6.63s-5.47-.34-13.36-1.45a46.16,46.16,0,0,0,8.47-3.16c-6.25-1.29-11.9-2.77-16.88-4.29a97.8,97.8,0,0,0,28.94-8.25s-24.26-2.7-46.34-10.93c10.92.59,24.17-1,39-7.48a230.68,230.68,0,0,1-27.18-3.1,84.35,84.35,0,0,0,18.44-7.14s-23.32,2.79-41.15-3.38c9.66,2.33,23.16,2.8,41.85-1.28a97.12,97.12,0,0,1-28.39-5.81,141.79,141.79,0,0,0,21.9-1.69,94,94,0,0,1-31.2-10.15,63.87,63.87,0,0,0,26.15-1,149.37,149.37,0,0,1-29-15.19c13.72,2.58,26.5-2.26,26.5-2.26a125.25,125.25,0,0,1-23.12-9.46,37.3,37.3,0,0,0,13.55-2.63,77.28,77.28,0,0,1-21.19-7.29c15.05,4.54,31.9,4.72,31.9,4.72a121.07,121.07,0,0,1-17.86-8.39,65.41,65.41,0,0,0,25.14-1.55,197.12,197.12,0,0,1-25.43-10,48.4,48.4,0,0,0,14.41-9s-17.75,3.88-31.31-3.37c9.75-.25,21.61-3,34.61-11.1a174.75,174.75,0,0,1-28.6-.95,29.41,29.41,0,0,0,6.63-6.08s-13.31,3.09-22.88-4.87c13.34,4.53,31.26,3.15,31.26,3.15a233.91,233.91,0,0,1-22.79-8.41,68.43,68.43,0,0,0,36.2.32s-30.19-6.43-45.27-17.91a171.19,171.19,0,0,0,25.06,6.05,101.81,101.81,0,0,1-18.26-8.29c6.17.31,13.76-.9,22.27-5.54,0,0-14.44-.2-25.67-4.1a32.67,32.67,0,0,0,17.25-1.46s-10.92-2-19.19-6.25c4.39,1,10.51,1.29,18.94-.12,0,0-10.07-.36-18.45-4.71,9.94,1.35,20.22-1.71,20.22-1.71a82.58,82.58,0,0,1-14.79-3.31,42.25,42.25,0,0,0,17.14-1.86,131,131,0,0,1-15.62-5.89,16.54,16.54,0,0,0,3.77-1.07,82.49,82.49,0,0,1-14.11-6.71c3.58,1.07,8.18.61,14-2.84a43.46,43.46,0,0,1-13.5-7.6,24.08,24.08,0,0,0,11.31,3.79,85,85,0,0,1-9.57-9.14,16.54,16.54,0,0,0,7.23-1.39,17,17,0,0,1-10.18-3.58A81.43,81.43,0,0,0,1338,362a49.21,49.21,0,0,1-8.75-4.29,27.92,27.92,0,0,0,11.28.69,79.93,79.93,0,0,1-13.41-6.29A11.49,11.49,0,0,0,1334,349s-12.25-1.55-14.48-9.13h0l-.07-1.88s0-1.4-.54-1.4-.54,1.4-.54,1.4l-.21,4.1h0c-.86,2.39-3,4.58-5.45,6.47-4.54,1.18-9.18-.82-9.46-.94a25.24,25.24,0,0,0,5.44,3.6,61.43,61.43,0,0,1-8.6,4.14,21,21,0,0,0,11.72-.65,49.51,49.51,0,0,1-10.87,6.84,25.64,25.64,0,0,0,10-.49,42.46,42.46,0,0,1-9.59,7.53,21.15,21.15,0,0,0,5.84,1.83,77.91,77.91,0,0,1-10.41,7.41,25.87,25.87,0,0,0,11.27-1.25,83.6,83.6,0,0,1-15,9.45,39.88,39.88,0,0,0,10.65.21,81.7,81.7,0,0,1-16.28,3,31.76,31.76,0,0,0,8.91,4.39,13.9,13.9,0,0,1-10.78.32c7,4.65,13.11,2.81,16.16,1.27a43.59,43.59,0,0,1-8.81,5.41,78,78,0,0,0,16.09-4.41c-9.15,5.67-22.57,9.2-22.57,9.2,11.73,5.2,20.64,3.37,25.39,1.48-5.9,6-16.57,3.87-17.16,3.76a45.68,45.68,0,0,0,9.42,3,90.78,90.78,0,0,1-15.57,2s14,4.44,23.81,3.58c-.18.15-.38.29-.58.43l0-.14c0,.06,0,.13,0,.19-8.41,5.81-28.2,4.72-28.2,4.72,8.68,5.56,16.51,6,22.09,5.2a19.77,19.77,0,0,1-9.57,3.9,25.75,25.75,0,0,0,4.55.77c-1,.61-2.06,1.2-3.12,1.78a39.66,39.66,0,0,1-17.76,3.24,58.45,58.45,0,0,0,5.67,2.35,183.55,183.55,0,0,1-19.44,6.56,56.46,56.46,0,0,0,26.52.94c-4.42,2.78-9.35,5.67-14.42,8.25,0,0,13.59.16,24.49-5-6.77,7.38-16.94,12.87-16.94,12.87a42.68,42.68,0,0,0,7.78-1.54c-15.38,11-34.22,19.3-34.22,19.3a65.61,65.61,0,0,0,24.57-.55c-3.07,2.54-6.49,5.21-10.23,7.89,0,0,15.11-1.73,27.78-9.64a139.8,139.8,0,0,1-16.31,12.37,37.77,37.77,0,0,0,13.93-2.19c-15.62,12.52-39.49,23.14-39.49,23.14a82.24,82.24,0,0,0,25-2.77,31.1,31.1,0,0,1-16.14,6.77,34.3,34.3,0,0,0,29.45-11.71c.53-.25,1-.51,1.55-.77A75.89,75.89,0,0,1,1284.83,523a83.8,83.8,0,0,0,20.37-12.39c-3.52,5.16-9.1,9.81-15.48,13.9a158.65,158.65,0,0,1-22.72,7,41.21,41.21,0,0,0,5.73,2,213.24,213.24,0,0,1-28.07,10.19c20.66,4,36,2.65,47.31-.88a88.38,88.38,0,0,1-18.9,8.64,52,52,0,0,0,16.81,3.42,131,131,0,0,1-30.08,13.31s6.15.79,14.56,1a226,226,0,0,1-29.88,7.72c18.14,5.39,33.37,4.15,44.82,1-22.48,16-53.78,14.53-53.78,14.53,23,6.85,39.34,6.94,50.75,4.39-26.75,12.71-66.25,18.86-66.25,18.86a129.79,129.79,0,0,0,26.76,4.27c-4.76,1.72-10.09,3.46-16,5.19,0,0,46.22-4.45,64-12.37-29.61,20.3-87.77,27.49-87.77,27.49,29.14,10.79,53.77,9.81,72.19,5.35-32.25,15-77.19,22.73-77.19,22.73a154.16,154.16,0,0,0,46.83,4.5A56.31,56.31,0,0,1,1217,679.1a61.71,61.71,0,0,0,57.69-10.27c2.18-.54,4.29-1.13,6.31-1.74a139.44,139.44,0,0,1-24.52,23.33S1282.06,680,1301.89,665l-2.38,47.13H1334l-1.78-45.66c20,14.07,55.27,20.27,56.42,20.46a118.14,118.14,0,0,1-25.42-15.92q2.85.21,5.9.3c8.43,4.19,29,11.35,53-2.31A51.07,51.07,0,0,1,1392.92,669.76Z"/></g></svg>